<?xml version="1.0" encoding="iso-8859-1"?>
<!-- Generator: Adobe Illustrator 17.1.0, SVG Export Plug-In . SVG Version: 6.00 Build 0)  -->
<!DOCTYPE svg PUBLIC "-//W3C//DTD SVG 1.1//EN" "http://www.w3.org/Graphics/SVG/1.1/DTD/svg11.dtd">
<svg version="1.1" id="Capa_1" xmlns="http://www.w3.org/2000/svg" xmlns:xlink="http://www.w3.org/1999/xlink" x="0px" y="0px"
	 viewBox="0 0 100 100" style="enable-background:new 0 0 100 100;" xml:space="preserve">
<g>
	<path style="fill:#828282;" d="M76.918,6.932H23.082c-4.449,0-8.253,1.579-11.412,4.738c-3.16,3.159-4.739,6.964-4.739,11.413
		v53.836c0,4.449,1.579,8.254,4.739,11.411c3.159,3.159,6.963,4.738,11.412,4.738h53.836c4.449,0,8.252-1.579,11.412-4.738
		c3.159-3.157,4.739-6.962,4.739-11.411V23.083c0-4.449-1.58-8.254-4.739-11.413C85.17,8.511,81.366,6.932,76.918,6.932z
		 M33.541,76.61c-1.402,1.402-3.094,2.103-5.075,2.103c-1.982,0-3.673-0.701-5.075-2.103c-1.402-1.402-2.103-3.093-2.103-5.076
		c0-1.98,0.701-3.674,2.103-5.076c1.402-1.402,3.093-2.103,5.075-2.103c1.981,0,3.673,0.701,5.075,2.103
		c1.402,1.402,2.103,3.095,2.103,5.076C35.644,73.517,34.943,75.208,33.541,76.61z M54.823,78.152
		c-0.374,0.375-0.804,0.561-1.29,0.561h-7.178c-0.486,0-0.897-0.158-1.234-0.478c-0.336-0.318-0.524-0.719-0.561-1.205
		c-0.412-5.757-2.673-10.692-6.786-14.806c-4.113-4.11-9.048-6.372-14.805-6.784c-0.486-0.037-0.889-0.226-1.206-0.561
		c-0.318-0.337-0.477-0.747-0.477-1.233v-7.179c0-0.486,0.187-0.916,0.561-1.29c0.373-0.372,0.822-0.541,1.346-0.504
		c8.673,0.486,16.075,3.794,22.207,9.926c6.131,6.131,9.44,13.533,9.926,22.206C55.364,77.331,55.196,77.778,54.823,78.152z
		 M76.357,78.152c-0.374,0.375-0.804,0.561-1.29,0.561h-7.178c-0.486,0-0.897-0.169-1.234-0.506
		c-0.336-0.335-0.524-0.745-0.561-1.233c-0.262-7.625-2.346-14.692-6.253-21.198c-3.907-6.504-9.113-11.709-15.618-15.617
		c-6.505-3.906-13.571-5.991-21.198-6.254c-0.486-0.035-0.897-0.223-1.234-0.561c-0.336-0.335-0.505-0.745-0.505-1.233v-7.179
		c0-0.484,0.187-0.914,0.561-1.288c0.336-0.375,0.766-0.543,1.29-0.506c5.757,0.188,11.318,1.233,16.684,3.141
		c5.364,1.906,10.225,4.515,14.581,7.823c4.355,3.308,8.187,7.141,11.496,11.496c3.309,4.357,5.916,9.216,7.823,14.581
		c1.907,5.367,2.953,10.927,3.141,16.684C76.936,77.385,76.768,77.815,76.357,78.152z"/>
</g>
</svg>
